# xmcd
# 
# Track frame offsets:
#     150
#     16420
#     28847
#     42325
#     55155
#     68455
#     80017
#     91795
#     105280
#     119005
#     131627
#     143507
#     155772
#     167875
# 
# Disc length: 2407
# 
# Revision: 1
# Processed by: cddbd v1.5.2PL0 Copyright (c) Steve Scherf et al.
# Submitted via: fre:ac v1.1beta1pre5
# 
DISCID=b509650e
DTITLE=Big Bill Broonzy - The Southern Blues
DYEAR=0
DGENRE=Blues
TTITLE0=The Southern Blues
TTITLE1=Hattie Blues
TTITLE2=Somedy's go to go
TTITLE3=It's your time now
TTITLE4=Living on easy Street
TTITLE5=Baby I done got wise
TTITLE6=Just a drream
TTITLE7=That's allright baby
TTITLE8=I.C, Blues
TTITLE9=Cotton Choppin' Blues
TTITLE10=My last goodbye to you
TTITLE11=Midnight Steppers
TTITLE12=Hit the right lick
TTITLE13=Bad acting woman
EXTD=ID3G: 0
EXTT0=
EXTT1=
EXTT2=
EXTT3=
EXTT4=
EXTT5=
EXTT6=
EXTT7=
EXTT8=
EXTT9=
EXTT10=
EXTT11=
EXTT12=
EXTT13=
PLAYORDER=
